<?xml version="1.0" encoding="iso-8859-1"?><svg xmlns="http://www.w3.org/2000/svg" viewBox="0 0 612.001 612.001"><path d="M374.778 173.493l-118.823-6.317c-1.38-.074-2.767.236-3.987.894l-65.454 35.305c-1.988 1.073-3.394 2.982-3.826 5.2-.433 2.22.152 4.516 1.59 6.257l33.673 40.733c.33-.247.663-.486 1.038-.683l155.79-81.39z"/><path d="M609.246 131.32c-.06-.126-.12-.25-.188-.373-4.695-8.796-15.308-19.28-39.184-19.28-25.11 0-52.433 11.402-53.584 11.888-66.23 26.386-377.957 190.42-377.957 190.42l-74.648-40.22c-2.208-1.19-4.857-1.206-7.076-.047L4.053 301.156c-2.217 1.156-3.716 3.337-4.005 5.82-.287 2.485.67 4.95 2.56 6.586L131.04 424.59c2.35 2.024 5.69 2.416 8.434.98l125.416-65.435 18.978 133.71c.346 2.445 1.865 4.565 4.067 5.677 1.072.542 2.24.813 3.41.813 1.23 0 2.46-.3 3.575-.9 13.33-7.17 21.652-11.707 29.697-16.098 8.197-4.473 16.674-9.1 30.39-16.467 1.467-.787 2.63-2.038 3.313-3.555l89.258-198.554 91.75-47.9c42.9-21.783 83.794-55.696 69.918-85.54z"/></svg>